<svg xmlns="http://www.w3.org/2000/svg" viewBox="0 0 239.06 77">
  <defs>
    <style>
      .cls-1 {
        fill: #0b67b1;
      }

      .cls-2 {
        fill: #fe473e;
      }

      .cls-3 {
        fill: #e7e7e7;
      }

      .cls-4 {
        fill: #e7eaea;
      }

      .cls-5 {
        fill: #feb536;
      }

      .cls-6 {
        fill: #e7e7e6;
      }

      .cls-7 {
        fill: #575a5b;
      }

      .cls-8 {
        fill: #e29f42;
      }

      .cls-9 {
        fill: #e19f42;
      }

      .cls-10 {
        fill: #fe493e;
      }

      .cls-11 {
        fill: #e29c42;
      }

      .cls-12 {
        fill: #585a5a;
      }

      .cls-13 {
        fill: #e1a042;
      }
    </style>
  </defs>
  <title>languages</title>
  <g id="Layer_2" data-name="Layer 2">
    <g id="Layer_1-2" data-name="Layer 1">
      <g>
        <g>
          <path class="cls-1" d="M169.27,76.31a110.32,110.32,0,0,1-18.71.51,95.79,95.79,0,0,1-11.06-1.4c-2.35-.41-4.18-1.32-5.11-3.62V5.48c1-1.68,1.78-2,3.72-1.59a89.91,89.91,0,0,0,26.18,1.67c1.19-.08,2.38-.2,3.57-.3,1.65-.22,1.76-.12,1.77,1.65V48q0,13.29,0,26.58A2.36,2.36,0,0,1,169.27,76.31Z"/>
          <path class="cls-2" d="M204.2.76A116.27,116.27,0,0,1,224.38.34a75,75,0,0,1,11.45,1.72,4,4,0,0,1,3.23,4.14V70.75c0,2.08-1.08,3-3.16,2.5a84.07,84.07,0,0,0-19.55-2,106.1,106.1,0,0,0-12.08.7c-.33-.22-.34-.56-.36-.91s0-.61,0-.92q0-33.79,0-67.6C203.91,1.93,203.76,1.29,204.2.76Z"/>
          <path class="cls-3" d="M169.27,76.31q0-35.06,0-70.09c0-1.41-.86-.82-1.45-1,.42-.35.92-.19,1.38-.19a59.62,59.62,0,0,0,7.29-.74c2.75-.37,5.51-.73,8.26-1.11,3.19-.44,6.38-.93,9.57-1.33,2.8-.35,5.57-.86,8.4-.93C203.93.78,204,.82,204,2V70.56c0,.63.15,1.36-.82,1.44-3.36.41-6.73.79-10.09,1.25-3.67.49-7.32,1.06-11,1.56-2.95.4-5.92.74-8.88,1.09A26.06,26.06,0,0,1,169.27,76.31Z"/>
          <path class="cls-4" d="M203.17,72c.57-.22.63-.68.62-1.22q0-34.41,0-68.81c0-.83-.26-1.13-1-1,.43-.39,1-.13,1.44-.2,0,.44,0,.89,0,1.33V70.54a3.78,3.78,0,0,0,.1,1.42Z"/>
        </g>
        <g>
          <path class="cls-5" d="M0,57.66c0-.54,0-1.08,0-1.63V20.68c0-.41,0-.81,0-1.22a2.08,2.08,0,0,1,1.49.12A74.32,74.32,0,0,0,16.42,22a87.26,87.26,0,0,0,9.7.11c5.1-.22,10.18-.75,15.25-1.45C49.94,19.52,58.46,18,67.06,17c2.91-.33,5.83-.56,8.75-.77s5.72-.18,8.57-.15a72.5,72.5,0,0,1,18.46,2.68,1.72,1.72,0,0,1,1.1.67c0,.24,0,.48,0,.71V56.79c0,.23,0,.47,0,.71-.54.35-1.06,0-1.57-.09a77.42,77.42,0,0,0-16.73-2.52c-8.55-.41-17,.63-25.42,1.78-7.52,1-15,2.39-22.55,3.27-4.33.5-8.67.81-13,1A81.4,81.4,0,0,1,5.06,59.24C3.69,59,2.34,58.6,1,58.2A1.81,1.81,0,0,1,0,57.66Z"/>
          <path class="cls-2" d="M0,57.66A90.71,90.71,0,0,0,10,59.83a68.17,68.17,0,0,0,7,.7c3,.12,6,.21,9.07.06,5-.26,9.94-.75,14.89-1.4,5.31-.69,10.6-1.56,15.9-2.35q6.69-1,13.41-1.76,2.53-.3,5.07-.42a98.39,98.39,0,0,1,12.85,0,70.08,70.08,0,0,1,15.39,2.79,2.73,2.73,0,0,0,.4,0c0,4.15.09,8.31,0,12.46,0,2.05-1.95,3.3-4.11,2.82s-4.53-.94-6.82-1.25a89.89,89.89,0,0,0-18.26-.46c-10.48.7-20.8,2.63-31.17,4.11a139.26,139.26,0,0,1-25.55,1.74A70.83,70.83,0,0,1,2.72,74.69,3.2,3.2,0,0,1,0,71.25Q0,64.46,0,57.66Z"/>
          <path class="cls-2" d="M103.94,19.43A72.19,72.19,0,0,0,92.21,17a84.65,84.65,0,0,0-14-.53c-4.31.15-8.6.58-12.88,1.11-5,.62-9.93,1.44-14.9,2.14-4.06.57-8.11,1.24-12.18,1.76-2.86.38-5.74.62-8.61.85a92.87,92.87,0,0,1-10.81.21A70.91,70.91,0,0,1,0,19.46c0-4-.07-8,0-12A3.39,3.39,0,0,1,4.39,4.31a81.81,81.81,0,0,0,21.73,1.8A193.21,193.21,0,0,0,47.44,3.8C57.5,2.28,67.54.53,77.74.09a79.6,79.6,0,0,1,23.52,2.22A3.24,3.24,0,0,1,104,5.84C104,10.37,104,14.9,103.94,19.43Z"/>
          <path class="cls-2" d="M25.81,51.35a2.25,2.25,0,0,1-1.43.8,1.73,1.73,0,0,1-.32-1.34c0-1.36,0-2.72,0-4.08,0-.34,0-.85-.48-.85s-.48.51-.49.85c0,1.36,0,2.72,0,4.08a1.73,1.73,0,0,1-.32,1.34,2.18,2.18,0,0,1-1.42-.8,3.41,3.41,0,0,1-.3-2,17.18,17.18,0,0,1,0-2c.08-.94-.14-1.65-1.13-1.94,0-2.22,0-4.43,0-6.64,0-1.36.39-1.74,1.77-1.74l5.62,0a1,1,0,0,1,.25.66,36.14,36.14,0,0,1-.07,5c-.13.41-.51.49-.84.65a2.24,2.24,0,0,0-1,3.63,2.34,2.34,0,0,1,.45.89C26.06,49.05,26.34,50.23,25.81,51.35Z"/>
          <path class="cls-3" d="M27.25,42.93c0-2,0-3.91,0-5.87,2,0,3.95,0,5.92,0,1,0,1.43.4,1.43,1.42,0,2.08,0,4.16,0,6.24,0,.57-.18.77-.76.76-1.33,0-2.66,0-4,0-.07,0-.17,0-.18,0A4.23,4.23,0,0,0,27.25,42.93Z"/>
          <path class="cls-2" d="M29.88,45.58l4,0c.28,0,.73-.08.71.35,0,1.47.4,3-.39,4.39a3.7,3.7,0,0,1-6.78-.83,1.08,1.08,0,0,1-.3-1.36,1.25,1.25,0,0,1,.74-.51A2.53,2.53,0,0,0,29.42,46C29.5,45.82,29.56,45.57,29.88,45.58Z"/>
          <path class="cls-6" d="M14.75,51.06c0-1.53,0-3.06,0-4.59a1.58,1.58,0,0,0-.5-1.34,1.86,1.86,0,0,1,0-2.72,1.92,1.92,0,0,1,2.59,0,1.85,1.85,0,0,1,0,2.72,1.57,1.57,0,0,0-.5,1.34c0,1.53,0,3.06,0,4.59A1,1,0,0,1,14.75,51.06Z"/>
          <path class="cls-6" d="M37.63,51.06c0-1.18,0-2.37,0-3.56,0-1,.11-1.88-.75-2.7a1.75,1.75,0,0,1,.39-2.52,1.91,1.91,0,0,1,2.51.21,1.76,1.76,0,0,1,0,2.55,1.76,1.76,0,0,0-.54,1.44c0,1.52,0,3.05,0,4.58A1,1,0,0,1,37.63,51.06Z"/>
          <path class="cls-7" d="M29.88,45.58a2.94,2.94,0,0,1-2.64,2.5c-.62.29-1,0-1.43-.44a2.66,2.66,0,0,1-.94-2.92,2.6,2.6,0,0,1,2.38-1.79,2.83,2.83,0,0,1,2.63,2.54A.14.14,0,0,0,29.88,45.58Z"/>
          <path class="cls-8" d="M28.47,31.5h.39a3,3,0,0,1-.11,3.11c-.58-.42-.38-1-.38-1.6,0-.75-.31-1-1.05-1s-1,.31-1,1,.27,1.64-.33,2.36c-.56-.36-1.19-.15-1.79-.2-.47-.53-.23-1.17-.31-1.76s.25-1.32-.81-1.27-1.22.15-1.26,1.35c0,.69.19,1.44-.3,2.07-.12-.11-.22-.27-.37-.33-.42-.16-1.05.09-1.28-.44A12.59,12.59,0,0,1,19,32.33c-.14-.66.39-.83,1-.83,2,0,4,0,6,0A2.4,2.4,0,0,1,28.47,31.5Z"/>
          <path class="cls-9" d="M28.47,31.5H26A8.1,8.1,0,0,1,26,28,2.39,2.39,0,0,1,26.56,27c.6-.57,1.16-.51,1.56.21A6.17,6.17,0,0,1,28.47,31.5Z"/>
          <path class="cls-10" d="M30.5,31.51h2.63a4.37,4.37,0,0,1,0,3.66,4.49,4.49,0,0,1-2.83,0A3.86,3.86,0,0,1,30.5,31.51Z"/>
          <path class="cls-11" d="M22.71,52.15c0-1.9,0-3.8,0-5.69,0-.63.07-1.06.86-1s.76.49.76,1c0,1.9,0,3.8,0,5.7Z"/>
          <path class="cls-2" d="M21.49,35.59c0-1,0-2,0-3,0-.51.16-.7.7-.74,2-.12,2-.14,2,1.88,0,.47,0,.95,0,1.43-.14.59-.62.37-1,.39C22.63,35.62,22.06,35.59,21.49,35.59Z"/>
          <path class="cls-2" d="M26,35.4c0-.95.05-1.9,0-2.85,0-.69.25-.86.89-.85,2.14,0,1.74-.22,1.78,1.76,0,.37,0,.74,0,1.12a.44.44,0,0,1,0,.61A6.17,6.17,0,0,1,26,35.4Z"/>
          <path class="cls-12" d="M37.63,51.06h1.62c1,.12,1.14.8,1.06,1.62s-.71,1-1.41.94a6.81,6.81,0,0,0-1,0c-.8.05-1.31-.24-1.4-1.09A1.17,1.17,0,0,1,37.63,51.06Z"/>
          <path class="cls-7" d="M14.75,51.06h1.64c1,.11,1.13.81,1.05,1.63s-.72,1-1.41.93h-.92c-.69,0-1.32,0-1.41-.93S13.74,51.17,14.75,51.06Z"/>
          <path class="cls-13" d="M33.14,35.18c0-1.22,0-2.44,0-3.66h1.61c.74,0,.95.39.75,1.06s-.36,1.22-.53,1.84C34.68,35.45,33.85,35.16,33.14,35.18Z"/>
          <path class="cls-9" d="M19.87,45.42c1.44,0,1.44,0,1.44,1.49s0,3,0,4.44a3.21,3.21,0,0,1-1.43-2.87C19.88,47.46,19.87,46.44,19.87,45.42Z"/>
          <path class="cls-9" d="M28.66,35.19v-.61c.45-1,.09-2,.2-3.07H30.5c-.39,1.21-.09,2.45-.19,3.67Z"/>
          <path class="cls-9" d="M25.81,47.64l1.43.44a3.47,3.47,0,0,0,.15,1.43c-.63.53-.78,1.47-1.58,1.84Z"/>
        </g>
      </g>
    </g>
  </g>
</svg>
